<svg xmlns="http://www.w3.org/2000/svg" viewBox="0 0 485.211 485.211">
  <path fill="currentColor" d="M423 198c.6-5.4 1.6-10.6 1.6-16 0-67-54.3-121.3-121.3-121.3-39.7 0-74.5 19.2-96.6 48.6-8-2-16.2-3.2-24.7-3.2-58.7 0-106.2 47.6-106.2 106.3 0 1.6.4 3 .5 4.8C32.3 230 0 270.3 0 318.5 0 377 47.5 424.6 106 424.6h258c67 0 121.2-54.3 121.2-121.3 0-45.5-25.3-84.6-62.2-105.4zM242.6 364c-50.2 0-91-41-91-91 0-50.2 40.8-91 91-91v-30.4l75.8 45.5-75.8 45.6v-30.3c-33.4 0-60.6 27.2-60.6 60.6 0 33.4 27.2 60.6 60.6 60.6 33.4 0 60.7-27.2 60.7-60.7h30.3c0 50-40.8 91-91 91z"/>
</svg>
